<svg version="1.2" xmlns="http://www.w3.org/2000/svg" viewBox="0 0 2000 1100" width="2000" height="1100">
	<title>Nový projekt</title>
	<defs>
		<linearGradient id="g1" x1="433" y1="981" x2="433" y2="415" gradientUnits="userSpaceOnUse">
			<stop offset="0" stop-color="#666666"/>
			<stop offset=".497" stop-color="#ffffff"/>
			<stop offset="1" stop-color="#656565"/>
		</linearGradient>
	</defs>
	<style>
		.s0 { fill: url(#g1);stroke: #ff0000;stroke-width: 11 } 
		.s1 { fill: #ff0000 } 
		.s2 { fill: none;stroke: #0000ff;stroke-width: 11;stroke-dasharray: 44,22 } 
		.s3 { fill: none;stroke: #00ff00;stroke-width: 11;stroke-dasharray: 44,22 } 
		.s4 { fill: #00ff00 } 
		.s5 { fill: none;stroke: #000000;stroke-width: 11;stroke-dasharray: 44,22 } 
		.s6 { fill: #000000 } 
		.s7 { fill: #0000ff } 
		.s8 { fill: none;stroke: #ff0000;stroke-width: 11;stroke-dasharray: 44,22 } 
	</style>
	<path id="Tvar 5" class="s0" d="m114 415h638v566h-638z"/>
	<path id="Pocket 1 dialog menu" class="s1" aria-label="Pocket 1
dialog
menu"  d="m315.5 583.7h-18.1v48.3h5.1v-15.2h13c12.3 0 19.7-6.3 19.7-16.5 0-10.4-7.4-16.6-19.7-16.6zm-0.1 28.6h-12.9v-24.2h12.9c9.6 0 14.7 4.4 14.7 12.2 0 7.5-5.1 12-14.7 12zm44.5 20c10.6 0 18.4-7.7 18.4-18.4 0-10.8-7.8-18.5-18.4-18.5-10.7 0-18.5 7.7-18.5 18.5 0 10.7 7.8 18.4 18.5 18.4zm0-4.3c-7.8 0-13.6-5.7-13.6-14.1 0-8.5 5.8-14.2 13.6-14.2 7.7 0 13.4 5.7 13.4 14.2 0 8.4-5.7 14.1-13.4 14.1zm43.4 4.3c6.2 0 11.3-2.4 14.2-7.1l-3.6-2.5c-2.5 3.6-6.4 5.3-10.6 5.3-7.9 0-13.7-5.6-13.7-14.1 0-8.5 5.8-14.2 13.7-14.2 4.2 0 8.1 1.7 10.6 5.4l3.6-2.5c-2.9-4.8-8-7.2-14.2-7.2-10.8 0-18.7 7.6-18.7 18.5 0 10.8 7.9 18.4 18.7 18.4zm51.4-0.3h6l-17-21.5 15.5-14.8h-6.1l-21.6 19.8v-34.7h-4.9v51.2h4.9v-10.4l8.5-7.8zm43.6-18.2c0-10.9-7.3-18.4-17.5-18.4-10.3 0-17.8 7.7-17.8 18.4 0 10.8 7.7 18.5 19.1 18.5 5.7 0 10.7-2 14-5.9l-2.8-3.2c-2.7 3.2-6.7 4.8-11.1 4.8-7.9 0-13.7-5.1-14.3-12.6h30.4c0-0.6 0-1.1 0-1.6zm-17.5-14.2c7.1 0 12.2 5 12.9 12.1h-25.8c0.6-7.1 5.8-12.1 12.9-12.1zm44.9 26.7c-1.3 1.2-3.3 1.8-5.3 1.8-4.1 0-6.3-2.3-6.3-6.6v-21.7h11v-4.1h-11v-7.9h-4.9v7.9h-6.5v4.1h6.5v22c0 6.7 3.8 10.5 10.6 10.5 2.8 0 5.7-0.8 7.7-2.5zm22.5-42.6v4.4h11.3v43.9h5v-48.3zm-189.7 80.1v21.8c-3-4.7-8-7.2-13.8-7.2-10.4 0-18.1 7.5-18.1 18.5 0 10.9 7.7 18.4 18.1 18.4 6 0 11-2.6 14-7.5v7.2h4.7v-51.2zm-13.4 47.2c-7.7 0-13.5-5.7-13.5-14.1 0-8.5 5.8-14.2 13.5-14.2 7.7 0 13.5 5.7 13.5 14.2 0 8.4-5.8 14.1-13.5 14.1zm34.4-40.2c2.1 0 3.6-1.6 3.6-3.6 0-1.9-1.6-3.4-3.6-3.4-2 0-3.5 1.6-3.5 3.5 0 1.9 1.5 3.5 3.5 3.5zm-2.4 44.2h4.9v-36.3h-4.9zm31.2-36.6c-5.7 0-11.1 1.8-14.8 4.9l2.3 3.7c2.9-2.6 7.3-4.3 12-4.3 6.8 0 10.3 3.4 10.3 9.6v2.2h-11.5c-10.4 0-14 4.7-14 10.3 0 6.3 5 10.6 13.2 10.6 6 0 10.3-2.3 12.5-6v5.6h4.7v-22.5c0-9.4-5.3-14.1-14.7-14.1zm-1.7 33.1c-5.8 0-9.2-2.6-9.2-6.8 0-3.8 2.3-6.5 9.3-6.5h11.4v5.9c-1.9 4.8-6 7.4-11.5 7.4zm29.7 3.5h4.9v-51.2h-4.9zm33.4 0.4c10.6 0 18.4-7.8 18.4-18.5 0-10.8-7.8-18.5-18.4-18.5-10.6 0-18.5 7.7-18.5 18.5 0 10.7 7.9 18.5 18.5 18.5zm0-4.4c-7.7 0-13.5-5.6-13.5-14.1 0-8.5 5.8-14.2 13.5-14.2 7.8 0 13.5 5.7 13.5 14.2 0 8.5-5.7 14.1-13.5 14.1zm57.4-32.3v7c-3.1-4.8-8.3-7.3-14.4-7.3-10.3 0-18.2 7.1-18.2 17.6 0 10.4 7.9 17.6 18.2 17.6 5.9 0 11.1-2.4 14.2-7v4.6c0 9-4.3 13.2-13.4 13.2-5.6 0-10.9-1.9-14.3-5l-2.5 3.8c3.8 3.5 10.3 5.5 16.9 5.5 12 0 18.2-5.6 18.2-18.1v-31.9zm-13.9 30.6c-8 0-13.7-5.5-13.7-13.3 0-7.9 5.7-13.3 13.7-13.3 8 0 13.8 5.4 13.8 13.3 0 7.8-5.8 13.3-13.8 13.3zm-134.2 52.1c-6.5 0-11.7 3-14.3 7.7-2.2-5.1-6.9-7.7-12.9-7.7-6.1 0-10.8 2.6-13.3 6.9v-6.6h-4.7v36.3h4.9v-19c0-8.3 4.7-13.1 12.1-13.1 6.7 0 10.5 3.9 10.5 11.5v20.6h4.9v-19c0-8.3 4.7-13.1 12.2-13.1 6.5 0 10.4 3.9 10.4 11.5v20.6h4.9v-21c0-10.5-5.8-15.6-14.7-15.6zm59.8 18.5c0-10.9-7.4-18.5-17.6-18.5-10.2 0-17.7 7.7-17.7 18.5 0 10.7 7.7 18.5 19 18.5 5.7 0 10.8-2.1 14-6l-2.7-3.2c-2.8 3.2-6.7 4.8-11.1 4.8-8 0-13.8-5-14.3-12.6h30.3c0-0.6 0.1-1.1 0.1-1.5zm-17.6-14.3c7.1 0 12.3 5 12.9 12.1h-25.7c0.6-7.1 5.8-12.1 12.8-12.1zm46.1-4.2c-6.3 0-11.2 2.6-13.8 7v-6.7h-4.7v36.3h4.9v-19c0-8.3 4.9-13.1 12.7-13.1 6.9 0 10.9 3.9 10.9 11.5v20.6h4.9v-21c0-10.5-6.1-15.6-14.9-15.6zm56 0.3v19.1c0 8.2-4.7 13.1-12.3 13.1-6.9 0-10.9-3.9-10.9-11.6v-20.6h-4.9v21.1c0 10.4 6 15.6 15.3 15.6 5.8 0 10.5-2.6 13-7v6.6h4.7v-36.3z"/>
	<path id="Tvar 3" class="s2" d="m1515 880h432v210h-432z"/>
	<path id="Tvar 2" class="s3" d="m1521 632h428v234h-428z"/>
	<path id="Pocket 2" class="s4" aria-label="Pocket 2"  d="m1606.4 710.7h-18.1v48.3h5.1v-15.2h13c12.2 0 19.7-6.3 19.7-16.5 0-10.4-7.5-16.6-19.7-16.6zm-0.2 28.6h-12.8v-24.2h12.8c9.7 0 14.8 4.4 14.8 12.2 0 7.5-5.1 12-14.8 12zm44.5 20c10.6 0 18.4-7.7 18.4-18.4 0-10.8-7.8-18.5-18.4-18.5-10.6 0-18.5 7.7-18.5 18.5 0 10.7 7.9 18.4 18.5 18.4zm0-4.3c-7.7 0-13.5-5.7-13.5-14.1 0-8.5 5.8-14.2 13.5-14.2 7.7 0 13.5 5.7 13.5 14.2 0 8.4-5.8 14.1-13.5 14.1zm43.5 4.3c6.1 0 11.3-2.4 14.2-7.1l-3.7-2.5c-2.4 3.6-6.3 5.3-10.5 5.3-7.9 0-13.7-5.6-13.7-14.1 0-8.5 5.8-14.2 13.7-14.2 4.2 0 8.1 1.7 10.5 5.4l3.7-2.5c-2.9-4.8-8.1-7.2-14.2-7.2-10.8 0-18.7 7.6-18.7 18.5 0 10.8 7.9 18.4 18.7 18.4zm51.3-0.3h6l-16.9-21.5 15.5-14.8h-6.1l-21.7 19.8v-34.7h-4.9v51.2h4.9v-10.4l8.6-7.8zm43.6-18.2c0-10.9-7.4-18.4-17.6-18.4-10.2 0-17.7 7.7-17.7 18.4 0 10.8 7.7 18.5 19 18.5 5.7 0 10.8-2 14-5.9l-2.7-3.2c-2.8 3.2-6.7 4.8-11.1 4.8-8 0-13.8-5.1-14.3-12.6h30.3c0-0.6 0.1-1.1 0.1-1.6zm-17.6-14.2c7.1 0 12.3 5 12.9 12.1h-25.7c0.6-7.1 5.8-12.1 12.8-12.1zm45 26.7c-1.4 1.2-3.4 1.8-5.4 1.8-4.1 0-6.3-2.3-6.3-6.6v-21.7h11.1v-4.1h-11.1v-7.9h-4.9v7.9h-6.4v4.1h6.4v22c0 6.7 3.8 10.5 10.7 10.5 2.8 0 5.7-0.8 7.6-2.5zm31.9 1.3l16.4-16.2c6.5-6.3 8-10.4 8-15.1 0-8-6.3-13-16-13-7.4 0-13.4 2.5-17.2 6.9l3.6 3c3.1-3.6 7.5-5.4 13.1-5.4 7.4 0 11.4 3.5 11.4 9.1 0 3.3-1.1 6.5-6.5 11.9l-20.1 19.7v3.5h33.9v-4.4z"/>
	<path id="Tvar 7" class="s5" d="m40 320h1473v770h-1473z"/>
	<path id="Tvar 6" class="s5" d="m40 10h1471v300h-1471z"/>
	<path id="RCSB" class="s6" aria-label="RCSB"  d="m686.8 190l-15.4-21.6c9.1-3 14.4-9.9 14.4-19.8 0-13.5-9.8-21.6-25.8-21.6h-23.6v63h6.7v-20h16.9c1.8 0 3.4-0.1 5.1-0.2l14.4 20.2zm-26.9-25.7h-16.8v-31.5h16.8c12.6 0 19.2 5.7 19.2 15.8 0 9.9-6.6 15.7-19.2 15.7zm69 26.2c9.3 0 17.5-3.1 23.1-9.2l-4.2-4.3c-5.1 5.3-11.4 7.6-18.6 7.6-15.3 0-26.7-11.2-26.7-26.1 0-14.9 11.4-26.1 26.7-26.1 7.2 0 13.5 2.3 18.6 7.5l4.2-4.3c-5.6-6.1-13.8-9.1-23-9.1-19 0-33.1 13.6-33.1 32 0 18.4 14.1 32 33 32zm54.3 0c16.2 0 23.5-7.9 23.5-17.1 0-23-38.8-12.6-38.8-29.8 0-6.3 5.2-11.5 16.7-11.5 5.6 0 11.9 1.7 17.3 5.3l2.2-5.4c-5-3.5-12.4-5.5-19.5-5.5-16 0-23.2 8-23.2 17.2 0 23.4 38.8 12.7 38.8 30 0 6.2-5.2 11.2-17 11.2-8.2 0-16.2-3.3-20.7-7.7l-2.7 5.2c4.7 4.8 14 8.1 23.4 8.1zm77.7-33c5.8-2.3 9.6-7.1 9.6-14.3 0-10.3-8.1-16.2-22.1-16.2h-27.2v63h29c15.8 0 23.7-6.1 23.7-16.8 0-8.6-4.9-13.9-13-15.7zm-12.9-25c10 0 15.9 3.9 15.9 11.4 0 7.6-5.9 11.5-15.9 11.5h-20.1v-22.9zm2.1 52h-22.2v-23.7h22.2c11.1 0 17.1 3.6 17.1 11.8 0 8.3-6 11.9-17.1 11.9z"/>
	<path id="Mol*" class="s6" aria-label="Mol*"  d="m715.5 659l-27.1 46.7-27.4-46.7h-5.5v63h6.4v-50.1l24.8 42.1h3.1l24.8-42.4v50.4h6.4v-63zm44 63.5c13.8 0 24-10.1 24-24.2 0-14-10.2-24-24-24-13.9 0-24.1 10-24.1 24 0 14.1 10.2 24.2 24.1 24.2zm0-5.7c-10.1 0-17.7-7.4-17.7-18.5 0-11 7.6-18.4 17.7-18.4 10.1 0 17.5 7.4 17.5 18.4 0 11.1-7.4 18.5-17.5 18.5zm37.1 5.2h6.4v-66.8h-6.4zm48-56.8l-2-3.8-11.3 6.6v-12.8h-4.1l0.1 12.8-11.3-6.6-2.2 3.8 11.3 6.3-11.3 6.3 2.2 3.8 11.3-6.6-0.1 12.8h4.1v-12.8l11.3 6.6 2-3.8-11.1-6.3z"/>
	<path id="Tvar 8" class="s5" d="m1513 10h432v341h-432z"/>
	<path id="Tools box" class="s6" aria-label="Tools
box"  d="m1637.6 149h6.7v-57.2h22.1v-5.8h-50.9v5.8h22.1zm52.5 0.4c13.8 0 24-10.1 24-24.1 0-14-10.2-24-24-24-13.9 0-24.1 10-24.1 24 0 14 10.2 24.1 24.1 24.1zm0-5.7c-10.1 0-17.7-7.3-17.7-18.4 0-11.1 7.6-18.5 17.7-18.5 10.1 0 17.5 7.4 17.5 18.5 0 11.1-7.4 18.4-17.5 18.4zm56.4 5.7c13.9 0 24-10.1 24-24.1 0-14-10.1-24-24-24-13.9 0-24.1 10-24.1 24 0 14 10.2 24.1 24.1 24.1zm0-5.7c-10.1 0-17.6-7.3-17.6-18.4 0-11.1 7.5-18.5 17.6-18.5 10.1 0 17.6 7.4 17.6 18.5 0 11.1-7.5 18.4-17.6 18.4zm37.1 5.3h6.4v-66.8h-6.4zm36.9 0.4c12.3 0 19.5-5.3 19.5-13.5 0-18.1-30.7-8.5-30.7-21.3 0-4.5 3.8-7.8 12.4-7.8 4.8 0 9.8 1.1 13.9 4l2.8-5.1c-4-2.7-10.6-4.4-16.7-4.4-12.1 0-18.8 5.7-18.8 13.5 0 18.7 30.7 9 30.7 21.3 0 4.7-3.7 7.8-12.7 7.8-6.6 0-13-2.4-16.8-5.4l-2.9 5.1c3.9 3.3 11.5 5.8 19.3 5.8zm-140.1 59.9c-7.6 0-14 3.2-18 9.3v-28.4h-6.4v66.8h6.1v-9.4c3.9 6.4 10.5 9.8 18.3 9.8 13.5 0 23.6-9.8 23.6-24.1 0-14.3-10.1-24-23.6-24zm-0.4 42.5c-10.1 0-17.7-7.4-17.7-18.5 0-11.1 7.6-18.4 17.7-18.4 9.9 0 17.6 7.3 17.6 18.4 0 11.1-7.7 18.5-17.6 18.5zm56.4 5.6c13.8 0 24-10 24-24.1 0-14-10.2-24-24-24-13.9 0-24.1 10-24.1 24 0 14.1 10.2 24.1 24.1 24.1zm0-5.6c-10.1 0-17.7-7.4-17.7-18.5 0-11.1 7.6-18.4 17.7-18.4 10.1 0 17.5 7.3 17.5 18.4 0 11.1-7.4 18.5-17.5 18.5zm72.8 5.2l-18.9-24.3 17.8-23.1h-7l-14.2 18.6-14.2-18.6h-7.2l17.8 23.1-18.7 24.3h7.2l15.1-19.8 15 19.8z"/>
	<path id="Pocket 3" class="s7" aria-label="Pocket 3"  d="m1606.5 954.7h-18.1v48.3h5.1v-15.2h13c12.3 0 19.7-6.3 19.7-16.5 0-10.4-7.4-16.6-19.7-16.6zm-0.1 28.6h-12.9v-24.2h12.9c9.6 0 14.7 4.4 14.7 12.2 0 7.5-5.1 12-14.7 12zm44.5 20c10.6 0 18.4-7.7 18.4-18.4 0-10.8-7.8-18.5-18.4-18.5-10.7 0-18.5 7.7-18.5 18.5 0 10.7 7.8 18.4 18.5 18.4zm0-4.3c-7.8 0-13.6-5.7-13.6-14.1 0-8.5 5.8-14.2 13.6-14.2 7.7 0 13.4 5.7 13.4 14.2 0 8.4-5.7 14.1-13.4 14.1zm43.4 4.3c6.2 0 11.3-2.4 14.2-7.1l-3.6-2.5c-2.5 3.6-6.4 5.3-10.6 5.3-7.9 0-13.7-5.6-13.7-14.1 0-8.5 5.8-14.2 13.7-14.2 4.2 0 8.1 1.7 10.6 5.4l3.6-2.5c-2.9-4.8-8-7.2-14.2-7.2-10.8 0-18.7 7.6-18.7 18.5 0 10.8 7.9 18.4 18.7 18.4zm51.4-0.3h6l-17-21.5 15.5-14.8h-6.1l-21.6 19.8v-34.7h-4.9v51.2h4.9v-10.4l8.5-7.8zm43.6-18.2c0-10.9-7.3-18.4-17.6-18.4-10.2 0-17.7 7.7-17.7 18.4 0 10.8 7.7 18.5 19.1 18.5 5.7 0 10.7-2 14-5.9l-2.8-3.2c-2.8 3.2-6.7 4.8-11.1 4.8-7.9 0-13.7-5.1-14.3-12.6h30.4c0-0.6 0-1.1 0-1.6zm-17.6-14.2c7.2 0 12.3 5 13 12.1h-25.8c0.6-7.1 5.8-12.1 12.8-12.1zm45 26.7c-1.3 1.2-3.3 1.8-5.3 1.8-4.1 0-6.3-2.3-6.3-6.6v-21.7h11v-4.1h-11v-7.9h-4.9v7.9h-6.5v4.1h6.5v22c0 6.7 3.8 10.5 10.6 10.5 2.8 0 5.7-0.8 7.7-2.5zm41.8-21.9l13.7-17.2v-3.5h-31v4.4h24.7l-13.4 16.8v3.6h3.4c9 0 13.1 3.8 13.1 9.6 0 6-4.5 9.8-12.5 9.8-6.2 0-11.8-2.4-14.9-5.6l-2.4 3.9c3.7 3.8 10.4 6.2 17.3 6.2 11.7 0 17.6-6.2 17.6-14.3 0-7.7-5.2-13.1-15.6-13.7z"/>
	<path id="Tvar 4" class="s8" d="m1519 368h428v251h-428z"/>
	<path id="Pocket 1" class="s1" aria-label="Pocket 1"  d="m1610.5 460.7h-18.1v48.3h5.1v-15.2h13c12.3 0 19.7-6.3 19.7-16.5 0-10.4-7.4-16.6-19.7-16.6zm-0.1 28.6h-12.9v-24.2h12.9c9.6 0 14.7 4.4 14.7 12.2 0 7.6-5.1 12-14.7 12zm44.5 20c10.6 0 18.4-7.7 18.4-18.4 0-10.8-7.8-18.5-18.4-18.5-10.7 0-18.5 7.7-18.5 18.5 0 10.7 7.8 18.4 18.5 18.4zm0-4.3c-7.8 0-13.6-5.7-13.6-14.1 0-8.5 5.8-14.2 13.6-14.2 7.7 0 13.4 5.7 13.4 14.2 0 8.4-5.7 14.1-13.4 14.1zm43.4 4.3c6.2 0 11.3-2.4 14.2-7.1l-3.6-2.5c-2.5 3.6-6.4 5.3-10.6 5.3-7.9 0-13.7-5.6-13.7-14.1 0-8.5 5.8-14.2 13.7-14.2 4.2 0 8.1 1.7 10.6 5.4l3.6-2.5c-2.9-4.8-8-7.2-14.2-7.2-10.8 0-18.7 7.6-18.7 18.5 0 10.8 7.9 18.4 18.7 18.4zm51.4-0.3h6l-17-21.5 15.5-14.8h-6.1l-21.6 19.8v-34.7h-4.9v51.2h4.9v-10.4l8.5-7.8zm43.6-18.2c0-10.9-7.3-18.4-17.5-18.4-10.3 0-17.8 7.7-17.8 18.4 0 10.8 7.7 18.5 19.1 18.5 5.7 0 10.7-2 14-5.9l-2.8-3.2c-2.7 3.2-6.7 4.8-11.1 4.8-7.9 0-13.7-5.1-14.3-12.6h30.4c0-0.6 0-1.1 0-1.6zm-17.5-14.2c7.1 0 12.2 5 12.9 12.1h-25.8c0.6-7.1 5.8-12.1 12.9-12.1zm44.9 26.7c-1.3 1.2-3.3 1.8-5.3 1.8-4.1 0-6.3-2.3-6.3-6.6v-21.7h11v-4.1h-11v-7.9h-4.9v7.9h-6.5v4.1h6.5v22c0 6.7 3.8 10.5 10.6 10.5 2.8 0 5.7-0.8 7.7-2.5zm22.5-42.6v4.4h11.3v43.9h5v-48.3z"/>
</svg>